<?xml version="1.0" encoding="UTF-8" standalone="no"?>
<!DOCTYPE svg PUBLIC "-//W3C//DTD SVG 1.1//EN"
 "http://www.w3.org/Graphics/SVG/1.1/DTD/svg11.dtd">
<!-- Generated by graphviz version 2.40.1 (20161225.0304)
 -->
<!-- Title: dependencies Pages: 1 -->
<svg width="1327pt" height="284pt"
 viewBox="0.00 0.00 1327.00 284.00" xmlns="http://www.w3.org/2000/svg" xmlns:xlink="http://www.w3.org/1999/xlink">
<g id="graph0" class="graph" transform="scale(1 1) rotate(0) translate(4 280)">
<title>dependencies</title>
<polygon fill="#ffffff" stroke="transparent" points="-4,4 -4,-280 1323,-280 1323,4 -4,4"/>
<text text-anchor="start" x="638.5091" y="-42.4" font-family="sans-serif" font-weight="bold" font-size="14.00" fill="#000000">Legend</text>
<polygon fill="#ffffb3" stroke="transparent" points="425.5,-10 425.5,-30 445.5,-30 445.5,-10 425.5,-10"/>
<text text-anchor="start" x="449.129" y="-15.4" font-family="sans-serif" font-size="14.00" fill="#000000"> &#160;Declarations</text>
<polygon fill="#8dd3c7" stroke="transparent" points="538.5,-10 538.5,-30 558.5,-30 558.5,-10 538.5,-10"/>
<text text-anchor="start" x="562.2251" y="-15.4" font-family="sans-serif" font-size="14.00" fill="#000000"> &#160;Module</text>
<polygon fill="#80b1d3" stroke="transparent" points="624.5,-10 624.5,-30 644.5,-30 644.5,-10 624.5,-10"/>
<text text-anchor="start" x="648.2812" y="-15.4" font-family="sans-serif" font-size="14.00" fill="#000000"> &#160;Bootstrap</text>
<polygon fill="#fdb462" stroke="transparent" points="721.5,-10 721.5,-30 741.5,-30 741.5,-10 721.5,-10"/>
<text text-anchor="start" x="745.1732" y="-15.4" font-family="sans-serif" font-size="14.00" fill="#000000"> &#160;Providers</text>
<polygon fill="#fb8072" stroke="transparent" points="817.5,-10 817.5,-30 837.5,-30 837.5,-10 817.5,-10"/>
<text text-anchor="start" x="841.2258" y="-15.4" font-family="sans-serif" font-size="14.00" fill="#000000"> &#160;Exports</text>
<g id="clust1" class="cluster">
<title>cluster_ParserModule</title>
<polygon fill="none" stroke="#000000" stroke-dasharray="1,5" points="8,-70 8,-268 1311,-268 1311,-70 8,-70"/>
</g>
<g id="clust2" class="cluster">
<title>cluster_ParserModule_declarations</title>
<polygon fill="none" stroke="#000000" points="471,-78 471,-130 1303,-130 1303,-78 471,-78"/>
</g>
<g id="clust8" class="cluster">
<title>cluster_ParserModule_imports</title>
<polygon fill="none" stroke="#000000" points="16,-78 16,-130 463,-130 463,-78 16,-78"/>
</g>
<g id="clust9" class="cluster">
<title>cluster_ParserModule_exports</title>
<polygon fill="none" stroke="#000000" points="70,-208 70,-260 1248,-260 1248,-208 70,-208"/>
</g>
<!-- ParserDataComponent -->
<g id="node1" class="node">
<title>ParserDataComponent</title>
<polygon fill="#ffffb3" stroke="#000000" points="1295.2366,-122 1152.7634,-122 1152.7634,-86 1295.2366,-86 1295.2366,-122"/>
<text text-anchor="middle" x="1224" y="-99.8" font-family="Times,serif" font-size="14.00" fill="#000000">ParserDataComponent</text>
</g>
<!-- ParserModule -->
<g id="node6" class="node">
<title>ParserModule</title>
<polygon fill="#8dd3c7" stroke="#000000" points="707.0286,-187 704.0286,-191 683.0286,-191 680.0286,-187 612.9714,-187 612.9714,-151 707.0286,-151 707.0286,-187"/>
<text text-anchor="middle" x="660" y="-164.8" font-family="Times,serif" font-size="14.00" fill="#000000">ParserModule</text>
</g>
<!-- ParserDataComponent&#45;&gt;ParserModule -->
<g id="edge1" class="edge">
<title>ParserDataComponent&#45;&gt;ParserModule</title>
<path fill="none" stroke="#000000" d="M1196.5188,-122.2222C1196.5188,-140.8285 1196.5188,-167 1196.5188,-167 1196.5188,-167 717.1422,-167 717.1422,-167"/>
<polygon fill="#000000" stroke="#000000" points="717.1423,-163.5001 707.1422,-167 717.1422,-170.5001 717.1423,-163.5001"/>
</g>
<!-- ParserDisplayComponent -->
<g id="node2" class="node">
<title>ParserDisplayComponent</title>
<polygon fill="#ffffb3" stroke="#000000" points="1134.8571,-122 975.1429,-122 975.1429,-86 1134.8571,-86 1134.8571,-122"/>
<text text-anchor="middle" x="1055" y="-99.8" font-family="Times,serif" font-size="14.00" fill="#000000">ParserDisplayComponent</text>
</g>
<!-- ParserDisplayComponent&#45;&gt;ParserModule -->
<g id="edge2" class="edge">
<title>ParserDisplayComponent&#45;&gt;ParserModule</title>
<path fill="none" stroke="#000000" d="M1042.3747,-122.0336C1042.3747,-139.0597 1042.3747,-162 1042.3747,-162 1042.3747,-162 717.2701,-162 717.2701,-162"/>
<polygon fill="#000000" stroke="#000000" points="717.2702,-158.5001 707.2701,-162 717.2701,-165.5001 717.2702,-158.5001"/>
</g>
<!-- ParserTabComponent -->
<g id="node3" class="node">
<title>ParserTabComponent</title>
<polygon fill="#ffffb3" stroke="#000000" points="957.0772,-122 818.9228,-122 818.9228,-86 957.0772,-86 957.0772,-122"/>
<text text-anchor="middle" x="888" y="-99.8" font-family="Times,serif" font-size="14.00" fill="#000000">ParserTabComponent</text>
</g>
<!-- ParserTabComponent&#45;&gt;ParserModule -->
<g id="edge3" class="edge">
<title>ParserTabComponent&#45;&gt;ParserModule</title>
<path fill="none" stroke="#000000" d="M866.4862,-122.2396C866.4862,-137.5706 866.4862,-157 866.4862,-157 866.4862,-157 717.1133,-157 717.1133,-157"/>
<polygon fill="#000000" stroke="#000000" points="717.1133,-153.5001 707.1133,-157 717.1132,-160.5001 717.1133,-153.5001"/>
</g>
<!-- ParserHomeComponent -->
<g id="node4" class="node">
<title>ParserHomeComponent</title>
<polygon fill="#ffffb3" stroke="#000000" points="801.0226,-122 650.9774,-122 650.9774,-86 801.0226,-86 801.0226,-122"/>
<text text-anchor="middle" x="726" y="-99.8" font-family="Times,serif" font-size="14.00" fill="#000000">ParserHomeComponent</text>
</g>
<!-- ParserHomeComponent&#45;&gt;ParserModule -->
<g id="edge4" class="edge">
<title>ParserHomeComponent&#45;&gt;ParserModule</title>
<path fill="none" stroke="#000000" d="M679.0014,-122.1061C679.0014,-122.1061 679.0014,-140.991 679.0014,-140.991"/>
<polygon fill="#000000" stroke="#000000" points="675.5015,-140.9909 679.0014,-150.991 682.5015,-140.991 675.5015,-140.9909"/>
</g>
<!-- ParserSearchComponent -->
<g id="node5" class="node">
<title>ParserSearchComponent</title>
<polygon fill="#ffffb3" stroke="#000000" points="633.3975,-122 478.6025,-122 478.6025,-86 633.3975,-86 633.3975,-122"/>
<text text-anchor="middle" x="556" y="-99.8" font-family="Times,serif" font-size="14.00" fill="#000000">ParserSearchComponent</text>
</g>
<!-- ParserSearchComponent&#45;&gt;ParserModule -->
<g id="edge5" class="edge">
<title>ParserSearchComponent&#45;&gt;ParserModule</title>
<path fill="none" stroke="#000000" d="M622.9674,-122.1061C622.9674,-122.1061 622.9674,-140.991 622.9674,-140.991"/>
<polygon fill="#000000" stroke="#000000" points="619.4675,-140.9909 622.9674,-150.991 626.4675,-140.991 619.4675,-140.9909"/>
</g>
<!-- MatTabsModule  -->
<g id="node10" class="node">
<title>MatTabsModule </title>
<polygon fill="#fb8072" stroke="#000000" points="1240.3116,-252 1127.6884,-252 1127.6884,-216 1240.3116,-216 1240.3116,-252"/>
<text text-anchor="middle" x="1184" y="-229.8" font-family="Times,serif" font-size="14.00" fill="#000000">MatTabsModule </text>
</g>
<!-- ParserModule&#45;&gt;MatTabsModule  -->
<g id="edge9" class="edge">
<title>ParserModule&#45;&gt;MatTabsModule </title>
<path fill="none" stroke="#000000" stroke-dasharray="5,2" d="M707.344,-172C826.8495,-172 1131.2614,-172 1131.2614,-172 1131.2614,-172 1131.2614,-205.7333 1131.2614,-205.7333"/>
<polygon fill="#000000" stroke="#000000" points="1127.7615,-205.7333 1131.2614,-215.7333 1134.7615,-205.7333 1127.7615,-205.7333"/>
</g>
<!-- MatProgressSpinnerModule  -->
<g id="node11" class="node">
<title>MatProgressSpinnerModule </title>
<polygon fill="#fb8072" stroke="#000000" points="1109.856,-252 932.144,-252 932.144,-216 1109.856,-216 1109.856,-252"/>
<text text-anchor="middle" x="1021" y="-229.8" font-family="Times,serif" font-size="14.00" fill="#000000">MatProgressSpinnerModule </text>
</g>
<!-- ParserModule&#45;&gt;MatProgressSpinnerModule  -->
<g id="edge10" class="edge">
<title>ParserModule&#45;&gt;MatProgressSpinnerModule </title>
<path fill="none" stroke="#000000" stroke-dasharray="5,2" d="M707.3287,-177C788.2788,-177 944.6804,-177 944.6804,-177 944.6804,-177 944.6804,-205.9648 944.6804,-205.9648"/>
<polygon fill="#000000" stroke="#000000" points="941.1805,-205.9648 944.6804,-215.9648 948.1805,-205.9649 941.1805,-205.9648"/>
</g>
<!-- ParserHomeComponent  -->
<g id="node12" class="node">
<title>ParserHomeComponent </title>
<polygon fill="#fb8072" stroke="#000000" points="914.0218,-252 759.9782,-252 759.9782,-216 914.0218,-216 914.0218,-252"/>
<text text-anchor="middle" x="837" y="-229.8" font-family="Times,serif" font-size="14.00" fill="#000000">ParserHomeComponent </text>
</g>
<!-- ParserModule&#45;&gt;ParserHomeComponent  -->
<g id="edge11" class="edge">
<title>ParserModule&#45;&gt;ParserHomeComponent </title>
<path fill="none" stroke="#000000" stroke-dasharray="5,2" d="M707.328,-182C741.1218,-182 780.625,-182 780.625,-182 780.625,-182 780.625,-205.8129 780.625,-205.8129"/>
<polygon fill="#000000" stroke="#000000" points="777.1251,-205.8129 780.625,-215.8129 784.1251,-205.813 777.1251,-205.8129"/>
</g>
<!-- ParserDisplayComponent  -->
<g id="node13" class="node">
<title>ParserDisplayComponent </title>
<polygon fill="#fb8072" stroke="#000000" points="741.8574,-252 578.1426,-252 578.1426,-216 741.8574,-216 741.8574,-252"/>
<text text-anchor="middle" x="660" y="-229.8" font-family="Times,serif" font-size="14.00" fill="#000000">ParserDisplayComponent </text>
</g>
<!-- ParserModule&#45;&gt;ParserDisplayComponent  -->
<g id="edge12" class="edge">
<title>ParserModule&#45;&gt;ParserDisplayComponent </title>
<path fill="none" stroke="#000000" stroke-dasharray="5,2" d="M660,-187.1061C660,-187.1061 660,-205.991 660,-205.991"/>
<polygon fill="#000000" stroke="#000000" points="656.5001,-205.9909 660,-215.991 663.5001,-205.991 656.5001,-205.9909"/>
</g>
<!-- ParserDataComponent  -->
<g id="node14" class="node">
<title>ParserDataComponent </title>
<polygon fill="#fb8072" stroke="#000000" points="560.2366,-252 413.7634,-252 413.7634,-216 560.2366,-216 560.2366,-252"/>
<text text-anchor="middle" x="487" y="-229.8" font-family="Times,serif" font-size="14.00" fill="#000000">ParserDataComponent </text>
</g>
<!-- ParserModule&#45;&gt;ParserDataComponent  -->
<g id="edge13" class="edge">
<title>ParserModule&#45;&gt;ParserDataComponent </title>
<path fill="none" stroke="#000000" stroke-dasharray="5,2" d="M612.8112,-182C571.9828,-182 519.4599,-182 519.4599,-182 519.4599,-182 519.4599,-205.8129 519.4599,-205.8129"/>
<polygon fill="#000000" stroke="#000000" points="515.9599,-205.8129 519.4599,-215.8129 522.9599,-205.813 515.9599,-205.8129"/>
</g>
<!-- ParserSearchComponent  -->
<g id="node15" class="node">
<title>ParserSearchComponent </title>
<polygon fill="#fb8072" stroke="#000000" points="395.897,-252 238.103,-252 238.103,-216 395.897,-216 395.897,-252"/>
<text text-anchor="middle" x="317" y="-229.8" font-family="Times,serif" font-size="14.00" fill="#000000">ParserSearchComponent </text>
</g>
<!-- ParserModule&#45;&gt;ParserSearchComponent  -->
<g id="edge14" class="edge">
<title>ParserModule&#45;&gt;ParserSearchComponent </title>
<path fill="none" stroke="#000000" stroke-dasharray="5,2" d="M612.689,-177C530.3886,-177 369.5574,-177 369.5574,-177 369.5574,-177 369.5574,-205.9648 369.5574,-205.9648"/>
<polygon fill="#000000" stroke="#000000" points="366.0574,-205.9648 369.5574,-215.9648 373.0574,-205.9649 366.0574,-205.9648"/>
</g>
<!-- ParserTabComponent  -->
<g id="node16" class="node">
<title>ParserTabComponent </title>
<polygon fill="#fb8072" stroke="#000000" points="219.5778,-252 78.4222,-252 78.4222,-216 219.5778,-216 219.5778,-252"/>
<text text-anchor="middle" x="149" y="-229.8" font-family="Times,serif" font-size="14.00" fill="#000000">ParserTabComponent </text>
</g>
<!-- ParserModule&#45;&gt;ParserTabComponent  -->
<g id="edge15" class="edge">
<title>ParserModule&#45;&gt;ParserTabComponent </title>
<path fill="none" stroke="#000000" stroke-dasharray="5,2" d="M612.8172,-172C496.8275,-172 207.1361,-172 207.1361,-172 207.1361,-172 207.1361,-205.7333 207.1361,-205.7333"/>
<polygon fill="#000000" stroke="#000000" points="203.6361,-205.7333 207.1361,-215.7333 210.6361,-205.7333 203.6361,-205.7333"/>
</g>
<!-- CommonModule -->
<g id="node7" class="node">
<title>CommonModule</title>
<polygon fill="#8dd3c7" stroke="#000000" points="454.6681,-122 451.6681,-126 430.6681,-126 427.6681,-122 343.3319,-122 343.3319,-86 454.6681,-86 454.6681,-122"/>
<text text-anchor="middle" x="399" y="-99.8" font-family="Times,serif" font-size="14.00" fill="#000000">CommonModule</text>
</g>
<!-- CommonModule&#45;&gt;ParserModule -->
<g id="edge6" class="edge">
<title>CommonModule&#45;&gt;ParserModule</title>
<path fill="none" stroke="#000000" d="M434.3578,-122.2396C434.3578,-137.5706 434.3578,-157 434.3578,-157 434.3578,-157 602.698,-157 602.698,-157"/>
<polygon fill="#000000" stroke="#000000" points="602.698,-160.5001 612.698,-157 602.698,-153.5001 602.698,-160.5001"/>
</g>
<!-- MatTabsModule -->
<g id="node8" class="node">
<title>MatTabsModule</title>
<polygon fill="#8dd3c7" stroke="#000000" points="325.8118,-122 322.8118,-126 301.8118,-126 298.8118,-122 216.1882,-122 216.1882,-86 325.8118,-86 325.8118,-122"/>
<text text-anchor="middle" x="271" y="-99.8" font-family="Times,serif" font-size="14.00" fill="#000000">MatTabsModule</text>
</g>
<!-- MatTabsModule&#45;&gt;ParserModule -->
<g id="edge7" class="edge">
<title>MatTabsModule&#45;&gt;ParserModule</title>
<path fill="none" stroke="#000000" d="M281.8536,-122.0336C281.8536,-139.0597 281.8536,-162 281.8536,-162 281.8536,-162 602.8721,-162 602.8721,-162"/>
<polygon fill="#000000" stroke="#000000" points="602.8721,-165.5001 612.8721,-162 602.872,-158.5001 602.8721,-165.5001"/>
</g>
<!-- MatProgressSpinnerModule -->
<g id="node9" class="node">
<title>MatProgressSpinnerModule</title>
<polygon fill="#8dd3c7" stroke="#000000" points="197.8557,-122 194.8557,-126 173.8557,-126 170.8557,-122 24.1443,-122 24.1443,-86 197.8557,-86 197.8557,-122"/>
<text text-anchor="middle" x="111" y="-99.8" font-family="Times,serif" font-size="14.00" fill="#000000">MatProgressSpinnerModule</text>
</g>
<!-- MatProgressSpinnerModule&#45;&gt;ParserModule -->
<g id="edge8" class="edge">
<title>MatProgressSpinnerModule&#45;&gt;ParserModule</title>
<path fill="none" stroke="#000000" d="M138.0696,-122.2222C138.0696,-140.8285 138.0696,-167 138.0696,-167 138.0696,-167 602.7616,-167 602.7616,-167"/>
<polygon fill="#000000" stroke="#000000" points="602.7617,-170.5001 612.7616,-167 602.7616,-163.5001 602.7617,-170.5001"/>
</g>
</g>
</svg>
