<?xml version="1.0" encoding="UTF-8" standalone="no"?>
<!DOCTYPE svg PUBLIC "-//W3C//DTD SVG 1.1//EN"
 "http://www.w3.org/Graphics/SVG/1.1/DTD/svg11.dtd">
<!-- Generated by graphviz version 2.40.1 (20161225.0304)
 -->
<!-- Title: dependencies Pages: 1 -->
<svg width="828pt" height="284pt"
 viewBox="0.00 0.00 828.00 284.00" xmlns="http://www.w3.org/2000/svg" xmlns:xlink="http://www.w3.org/1999/xlink">
<g id="graph0" class="graph" transform="scale(1 1) rotate(0) translate(4 280)">
<title>dependencies</title>
<polygon fill="#ffffff" stroke="transparent" points="-4,4 -4,-280 824,-280 824,4 -4,4"/>
<text text-anchor="start" x="389.0091" y="-42.4" font-family="sans-serif" font-weight="bold" font-size="14.00" fill="#000000">Legend</text>
<polygon fill="#ffffb3" stroke="transparent" points="176,-10 176,-30 196,-30 196,-10 176,-10"/>
<text text-anchor="start" x="199.629" y="-15.4" font-family="sans-serif" font-size="14.00" fill="#000000"> &#160;Declarations</text>
<polygon fill="#8dd3c7" stroke="transparent" points="289,-10 289,-30 309,-30 309,-10 289,-10"/>
<text text-anchor="start" x="312.7251" y="-15.4" font-family="sans-serif" font-size="14.00" fill="#000000"> &#160;Module</text>
<polygon fill="#80b1d3" stroke="transparent" points="375,-10 375,-30 395,-30 395,-10 375,-10"/>
<text text-anchor="start" x="398.7812" y="-15.4" font-family="sans-serif" font-size="14.00" fill="#000000"> &#160;Bootstrap</text>
<polygon fill="#fdb462" stroke="transparent" points="472,-10 472,-30 492,-30 492,-10 472,-10"/>
<text text-anchor="start" x="495.6732" y="-15.4" font-family="sans-serif" font-size="14.00" fill="#000000"> &#160;Providers</text>
<polygon fill="#fb8072" stroke="transparent" points="568,-10 568,-30 588,-30 588,-10 568,-10"/>
<text text-anchor="start" x="591.7258" y="-15.4" font-family="sans-serif" font-size="14.00" fill="#000000"> &#160;Exports</text>
<g id="clust1" class="cluster">
<title>cluster_AppModule</title>
<polygon fill="none" stroke="#000000" stroke-dasharray="1,5" points="8,-70 8,-268 812,-268 812,-70 8,-70"/>
</g>
<g id="clust2" class="cluster">
<title>cluster_AppModule_declarations</title>
<polygon fill="none" stroke="#000000" points="406,-78 406,-130 804,-130 804,-78 406,-78"/>
</g>
<g id="clust6" class="cluster">
<title>cluster_AppModule_imports</title>
<polygon fill="none" stroke="#000000" points="16,-78 16,-130 398,-130 398,-78 16,-78"/>
</g>
<g id="clust8" class="cluster">
<title>cluster_AppModule_bootstrap</title>
<polygon fill="none" stroke="#000000" points="344,-208 344,-260 468,-260 468,-208 344,-208"/>
</g>
<!-- AppComponent -->
<g id="node1" class="node">
<title>AppComponent</title>
<polygon fill="#ffffb3" stroke="#000000" points="795.9399,-122 690.0601,-122 690.0601,-86 795.9399,-86 795.9399,-122"/>
<text text-anchor="middle" x="743" y="-99.8" font-family="Times,serif" font-size="14.00" fill="#000000">AppComponent</text>
</g>
<!-- AppModule -->
<g id="node4" class="node">
<title>AppModule</title>
<polygon fill="#8dd3c7" stroke="#000000" points="447.6571,-187 444.6571,-191 423.6571,-191 420.6571,-187 364.3429,-187 364.3429,-151 447.6571,-151 447.6571,-187"/>
<text text-anchor="middle" x="406" y="-164.8" font-family="Times,serif" font-size="14.00" fill="#000000">AppModule</text>
</g>
<!-- AppComponent&#45;&gt;AppModule -->
<g id="edge1" class="edge">
<title>AppComponent&#45;&gt;AppModule</title>
<path fill="none" stroke="#000000" d="M743,-122.2843C743,-143.3211 743,-175 743,-175 743,-175 457.6608,-175 457.6608,-175"/>
<polygon fill="#000000" stroke="#000000" points="457.6608,-171.5001 447.6608,-175 457.6608,-178.5001 457.6608,-171.5001"/>
</g>
<!-- FooterComponent -->
<g id="node2" class="node">
<title>FooterComponent</title>
<polygon fill="#ffffb3" stroke="#000000" points="671.8809,-122 554.1191,-122 554.1191,-86 671.8809,-86 671.8809,-122"/>
<text text-anchor="middle" x="613" y="-99.8" font-family="Times,serif" font-size="14.00" fill="#000000">FooterComponent</text>
</g>
<!-- FooterComponent&#45;&gt;AppModule -->
<g id="edge2" class="edge">
<title>FooterComponent&#45;&gt;AppModule</title>
<path fill="none" stroke="#000000" d="M613,-122.0225C613,-139.3734 613,-163 613,-163 613,-163 457.8895,-163 457.8895,-163"/>
<polygon fill="#000000" stroke="#000000" points="457.8896,-159.5001 447.8895,-163 457.8895,-166.5001 457.8896,-159.5001"/>
</g>
<!-- HeaderComponent -->
<g id="node3" class="node">
<title>HeaderComponent</title>
<polygon fill="#ffffb3" stroke="#000000" points="535.7437,-122 414.2563,-122 414.2563,-86 535.7437,-86 535.7437,-122"/>
<text text-anchor="middle" x="475" y="-99.8" font-family="Times,serif" font-size="14.00" fill="#000000">HeaderComponent</text>
</g>
<!-- HeaderComponent&#45;&gt;AppModule -->
<g id="edge3" class="edge">
<title>HeaderComponent&#45;&gt;AppModule</title>
<path fill="none" stroke="#000000" d="M430.9783,-122.1061C430.9783,-122.1061 430.9783,-140.991 430.9783,-140.991"/>
<polygon fill="#000000" stroke="#000000" points="427.4783,-140.9909 430.9783,-150.991 434.4783,-140.991 427.4783,-140.9909"/>
</g>
<!-- AppComponent  -->
<g id="node8" class="node">
<title>AppComponent </title>
<polygon fill="#80b1d3" stroke="#000000" points="460.439,-252 351.561,-252 351.561,-216 460.439,-216 460.439,-252"/>
<text text-anchor="middle" x="406" y="-229.8" font-family="Times,serif" font-size="14.00" fill="#000000">AppComponent </text>
</g>
<!-- AppModule&#45;&gt;AppComponent  -->
<g id="edge7" class="edge">
<title>AppModule&#45;&gt;AppComponent </title>
<path fill="none" stroke="#000000" stroke-dasharray="1,5" d="M406,-187.1061C406,-187.1061 406,-205.991 406,-205.991"/>
<polygon fill="#000000" stroke="#000000" points="402.5001,-205.9909 406,-215.991 409.5001,-205.991 402.5001,-205.9909"/>
</g>
<!-- BrowserModule -->
<g id="node5" class="node">
<title>BrowserModule</title>
<polygon fill="#8dd3c7" stroke="#000000" points="390.4734,-122 387.4734,-126 366.4734,-126 363.4734,-122 283.5266,-122 283.5266,-86 390.4734,-86 390.4734,-122"/>
<text text-anchor="middle" x="337" y="-99.8" font-family="Times,serif" font-size="14.00" fill="#000000">BrowserModule</text>
</g>
<!-- BrowserModule&#45;&gt;AppModule -->
<g id="edge4" class="edge">
<title>BrowserModule&#45;&gt;AppModule</title>
<path fill="none" stroke="#000000" d="M377.3293,-122.1061C377.3293,-122.1061 377.3293,-140.991 377.3293,-140.991"/>
<polygon fill="#000000" stroke="#000000" points="373.8293,-140.9909 377.3293,-150.991 380.8293,-140.991 373.8293,-140.9909"/>
</g>
<!-- AppRoutingModule -->
<g id="node6" class="node">
<title>AppRoutingModule</title>
<polygon fill="#8dd3c7" stroke="#000000" points="265.2744,-122 262.2744,-126 241.2744,-126 238.2744,-122 136.7256,-122 136.7256,-86 265.2744,-86 265.2744,-122"/>
<text text-anchor="middle" x="201" y="-99.8" font-family="Times,serif" font-size="14.00" fill="#000000">AppRoutingModule</text>
</g>
<!-- AppRoutingModule&#45;&gt;AppModule -->
<g id="edge5" class="edge">
<title>AppRoutingModule&#45;&gt;AppModule</title>
<path fill="none" stroke="#000000" d="M201,-122.0225C201,-139.3734 201,-163 201,-163 201,-163 354.0205,-163 354.0205,-163"/>
<polygon fill="#000000" stroke="#000000" points="354.0205,-166.5001 364.0205,-163 354.0205,-159.5001 354.0205,-166.5001"/>
</g>
<!-- ParserModule -->
<g id="node7" class="node">
<title>ParserModule</title>
<polygon fill="#8dd3c7" stroke="#000000" points="118.0286,-122 115.0286,-126 94.0286,-126 91.0286,-122 23.9714,-122 23.9714,-86 118.0286,-86 118.0286,-122"/>
<text text-anchor="middle" x="71" y="-99.8" font-family="Times,serif" font-size="14.00" fill="#000000">ParserModule</text>
</g>
<!-- ParserModule&#45;&gt;AppModule -->
<g id="edge6" class="edge">
<title>ParserModule&#45;&gt;AppModule</title>
<path fill="none" stroke="#000000" d="M71,-122.2843C71,-143.3211 71,-175 71,-175 71,-175 354.2494,-175 354.2494,-175"/>
<polygon fill="#000000" stroke="#000000" points="354.2494,-178.5001 364.2494,-175 354.2493,-171.5001 354.2494,-178.5001"/>
</g>
</g>
</svg>
