<?xml version="1.0" encoding="UTF-8" standalone="no"?>
<!DOCTYPE svg PUBLIC "-//W3C//DTD SVG 1.1//EN"
 "http://www.w3.org/Graphics/SVG/1.1/DTD/svg11.dtd">
<!-- Generated by graphviz version 2.40.1 (20161225.0304)
 -->
<!-- Title: dependencies Pages: 1 -->
<svg width="2513pt" height="366pt"
 viewBox="0.00 0.00 2513.00 366.00" xmlns="http://www.w3.org/2000/svg" xmlns:xlink="http://www.w3.org/1999/xlink">
<g id="graph0" class="graph" transform="scale(1 1) rotate(0) translate(4 362)">
<title>dependencies</title>
<polygon fill="#ffffff" stroke="transparent" points="-4,4 -4,-362 2509,-362 2509,4 -4,4"/>
<text text-anchor="start" x="1231.5091" y="-42.4" font-family="sans-serif" font-weight="bold" font-size="14.00" fill="#000000">Legend</text>
<polygon fill="#ffffb3" stroke="transparent" points="1018.5,-10 1018.5,-30 1038.5,-30 1038.5,-10 1018.5,-10"/>
<text text-anchor="start" x="1042.129" y="-15.4" font-family="sans-serif" font-size="14.00" fill="#000000"> &#160;Declarations</text>
<polygon fill="#8dd3c7" stroke="transparent" points="1131.5,-10 1131.5,-30 1151.5,-30 1151.5,-10 1131.5,-10"/>
<text text-anchor="start" x="1155.2251" y="-15.4" font-family="sans-serif" font-size="14.00" fill="#000000"> &#160;Module</text>
<polygon fill="#80b1d3" stroke="transparent" points="1217.5,-10 1217.5,-30 1237.5,-30 1237.5,-10 1217.5,-10"/>
<text text-anchor="start" x="1241.2812" y="-15.4" font-family="sans-serif" font-size="14.00" fill="#000000"> &#160;Bootstrap</text>
<polygon fill="#fdb462" stroke="transparent" points="1314.5,-10 1314.5,-30 1334.5,-30 1334.5,-10 1314.5,-10"/>
<text text-anchor="start" x="1338.1732" y="-15.4" font-family="sans-serif" font-size="14.00" fill="#000000"> &#160;Providers</text>
<polygon fill="#fb8072" stroke="transparent" points="1410.5,-10 1410.5,-30 1430.5,-30 1430.5,-10 1410.5,-10"/>
<text text-anchor="start" x="1434.2258" y="-15.4" font-family="sans-serif" font-size="14.00" fill="#000000"> &#160;Exports</text>
<g id="clust1" class="cluster">
<title>cluster_AppModule</title>
<polygon fill="none" stroke="#000000" stroke-dasharray="1,5" points="828,-146 828,-350 1632,-350 1632,-146 828,-146"/>
</g>
<g id="clust2" class="cluster">
<title>cluster_AppModule_declarations</title>
<polygon fill="none" stroke="#000000" points="836,-154 836,-206 1234,-206 1234,-154 836,-154"/>
</g>
<g id="clust6" class="cluster">
<title>cluster_AppModule_imports</title>
<polygon fill="none" stroke="#000000" points="1242,-154 1242,-206 1624,-206 1624,-154 1242,-154"/>
</g>
<g id="clust8" class="cluster">
<title>cluster_AppModule_bootstrap</title>
<polygon fill="none" stroke="#000000" points="1173,-290 1173,-342 1297,-342 1297,-290 1173,-290"/>
</g>
<g id="clust10" class="cluster">
<title>cluster_AppRoutingModule</title>
<polygon fill="none" stroke="#000000" stroke-dasharray="1,5" points="1640,-214 1640,-282 1976,-282 1976,-214 1640,-214"/>
</g>
<g id="clust12" class="cluster">
<title>cluster_AppRoutingModule_imports</title>
<polygon fill="none" stroke="#000000" points="1774,-222 1774,-274 1968,-274 1968,-222 1774,-222"/>
</g>
<g id="clust13" class="cluster">
<title>cluster_AppRoutingModule_exports</title>
<polygon fill="none" stroke="#000000" points="1648,-222 1648,-274 1766,-274 1766,-222 1648,-222"/>
</g>
<g id="clust16" class="cluster">
<title>cluster_ParserModule</title>
<polygon fill="none" stroke="#000000" stroke-dasharray="1,5" points="8,-70 8,-138 2497,-138 2497,-70 8,-70"/>
</g>
<g id="clust17" class="cluster">
<title>cluster_ParserModule_declarations</title>
<polygon fill="none" stroke="#000000" points="1657,-78 1657,-130 2489,-130 2489,-78 1657,-78"/>
</g>
<g id="clust23" class="cluster">
<title>cluster_ParserModule_imports</title>
<polygon fill="none" stroke="#000000" points="1202,-78 1202,-130 1649,-130 1649,-78 1202,-78"/>
</g>
<g id="clust24" class="cluster">
<title>cluster_ParserModule_exports</title>
<polygon fill="none" stroke="#000000" points="16,-78 16,-130 1194,-130 1194,-78 16,-78"/>
</g>
<!-- AppComponent -->
<g id="node1" class="node">
<title>AppComponent</title>
<polygon fill="#ffffb3" stroke="#000000" points="1225.9399,-198 1120.0601,-198 1120.0601,-162 1225.9399,-162 1225.9399,-198"/>
<text text-anchor="middle" x="1173" y="-175.8" font-family="Times,serif" font-size="14.00" fill="#000000">AppComponent</text>
</g>
<!-- AppModule -->
<g id="node4" class="node">
<title>AppModule</title>
<polygon fill="#8dd3c7" stroke="#000000" points="1276.6571,-266 1273.6571,-270 1252.6571,-270 1249.6571,-266 1193.3429,-266 1193.3429,-230 1276.6571,-230 1276.6571,-266"/>
<text text-anchor="middle" x="1235" y="-243.8" font-family="Times,serif" font-size="14.00" fill="#000000">AppModule</text>
</g>
<!-- AppComponent&#45;&gt;AppModule -->
<g id="edge1" class="edge">
<title>AppComponent&#45;&gt;AppModule</title>
<path fill="none" stroke="#000000" d="M1209.4457,-198.2228C1209.4457,-198.2228 1209.4457,-219.7269 1209.4457,-219.7269"/>
<polygon fill="#000000" stroke="#000000" points="1205.9457,-219.7269 1209.4457,-229.7269 1212.9457,-219.727 1205.9457,-219.7269"/>
</g>
<!-- FooterComponent -->
<g id="node2" class="node">
<title>FooterComponent</title>
<polygon fill="#ffffb3" stroke="#000000" points="1101.8809,-198 984.1191,-198 984.1191,-162 1101.8809,-162 1101.8809,-198"/>
<text text-anchor="middle" x="1043" y="-175.8" font-family="Times,serif" font-size="14.00" fill="#000000">FooterComponent</text>
</g>
<!-- FooterComponent&#45;&gt;AppModule -->
<g id="edge2" class="edge">
<title>FooterComponent&#45;&gt;AppModule</title>
<path fill="none" stroke="#000000" d="M1043,-198.2667C1043,-216.5552 1043,-242 1043,-242 1043,-242 1183.3389,-242 1183.3389,-242"/>
<polygon fill="#000000" stroke="#000000" points="1183.3389,-245.5001 1193.3389,-242 1183.3388,-238.5001 1183.3389,-245.5001"/>
</g>
<!-- HeaderComponent -->
<g id="node3" class="node">
<title>HeaderComponent</title>
<polygon fill="#ffffb3" stroke="#000000" points="965.7437,-198 844.2563,-198 844.2563,-162 965.7437,-162 965.7437,-198"/>
<text text-anchor="middle" x="905" y="-175.8" font-family="Times,serif" font-size="14.00" fill="#000000">HeaderComponent</text>
</g>
<!-- HeaderComponent&#45;&gt;AppModule -->
<g id="edge3" class="edge">
<title>HeaderComponent&#45;&gt;AppModule</title>
<path fill="none" stroke="#000000" d="M905,-198.2921C905,-220.2057 905,-254 905,-254 905,-254 1183.2053,-254 1183.2053,-254"/>
<polygon fill="#000000" stroke="#000000" points="1183.2053,-257.5001 1193.2053,-254 1183.2052,-250.5001 1183.2053,-257.5001"/>
</g>
<!-- AppComponent  -->
<g id="node8" class="node">
<title>AppComponent </title>
<polygon fill="#80b1d3" stroke="#000000" points="1289.439,-334 1180.561,-334 1180.561,-298 1289.439,-298 1289.439,-334"/>
<text text-anchor="middle" x="1235" y="-311.8" font-family="Times,serif" font-size="14.00" fill="#000000">AppComponent </text>
</g>
<!-- AppModule&#45;&gt;AppComponent  -->
<g id="edge7" class="edge">
<title>AppModule&#45;&gt;AppComponent </title>
<path fill="none" stroke="#000000" stroke-dasharray="1,5" d="M1235,-266.2228C1235,-266.2228 1235,-287.7269 1235,-287.7269"/>
<polygon fill="#000000" stroke="#000000" points="1231.5001,-287.7269 1235,-297.7269 1238.5001,-287.727 1231.5001,-287.7269"/>
</g>
<!-- BrowserModule -->
<g id="node5" class="node">
<title>BrowserModule</title>
<polygon fill="#8dd3c7" stroke="#000000" points="1469.4734,-198 1466.4734,-202 1445.4734,-202 1442.4734,-198 1362.5266,-198 1362.5266,-162 1469.4734,-162 1469.4734,-198"/>
<text text-anchor="middle" x="1416" y="-175.8" font-family="Times,serif" font-size="14.00" fill="#000000">BrowserModule</text>
</g>
<!-- BrowserModule&#45;&gt;AppModule -->
<g id="edge4" class="edge">
<title>BrowserModule&#45;&gt;AppModule</title>
<path fill="none" stroke="#000000" d="M1416,-198.2667C1416,-216.5552 1416,-242 1416,-242 1416,-242 1286.98,-242 1286.98,-242"/>
<polygon fill="#000000" stroke="#000000" points="1286.98,-238.5001 1276.98,-242 1286.9799,-245.5001 1286.98,-238.5001"/>
</g>
<!-- AppRoutingModule -->
<g id="node6" class="node">
<title>AppRoutingModule</title>
<polygon fill="#8dd3c7" stroke="#000000" points="1616.2744,-198 1613.2744,-202 1592.2744,-202 1589.2744,-198 1487.7256,-198 1487.7256,-162 1616.2744,-162 1616.2744,-198"/>
<text text-anchor="middle" x="1552" y="-175.8" font-family="Times,serif" font-size="14.00" fill="#000000">AppRoutingModule</text>
</g>
<!-- AppRoutingModule&#45;&gt;AppModule -->
<g id="edge5" class="edge">
<title>AppRoutingModule&#45;&gt;AppModule</title>
<path fill="none" stroke="#000000" d="M1552,-198.2921C1552,-220.2057 1552,-254 1552,-254 1552,-254 1286.7682,-254 1286.7682,-254"/>
<polygon fill="#000000" stroke="#000000" points="1286.7682,-250.5001 1276.7682,-254 1286.7682,-257.5001 1286.7682,-250.5001"/>
</g>
<!-- RouterModule  -->
<g id="node10" class="node">
<title>RouterModule </title>
<polygon fill="#fb8072" stroke="#000000" points="1757.6523,-266 1656.3477,-266 1656.3477,-230 1757.6523,-230 1757.6523,-266"/>
<text text-anchor="middle" x="1707" y="-243.8" font-family="Times,serif" font-size="14.00" fill="#000000">RouterModule </text>
</g>
<!-- AppRoutingModule&#45;&gt;RouterModule  -->
<g id="edge9" class="edge">
<title>AppRoutingModule&#45;&gt;RouterModule </title>
<path fill="none" stroke="#000000" stroke-dasharray="5,2" d="M1616.4358,-186C1639.8236,-186 1660.6127,-186 1660.6127,-186 1660.6127,-186 1660.6127,-219.7333 1660.6127,-219.7333"/>
<polygon fill="#000000" stroke="#000000" points="1657.1128,-219.7333 1660.6127,-229.7333 1664.1128,-219.7333 1657.1128,-219.7333"/>
</g>
<!-- ParserModule -->
<g id="node7" class="node">
<title>ParserModule</title>
<polygon fill="#8dd3c7" stroke="#000000" points="1344.0286,-198 1341.0286,-202 1320.0286,-202 1317.0286,-198 1249.9714,-198 1249.9714,-162 1344.0286,-162 1344.0286,-198"/>
<text text-anchor="middle" x="1297" y="-175.8" font-family="Times,serif" font-size="14.00" fill="#000000">ParserModule</text>
</g>
<!-- ParserModule&#45;&gt;AppModule -->
<g id="edge6" class="edge">
<title>ParserModule&#45;&gt;AppModule</title>
<path fill="none" stroke="#000000" d="M1263.2823,-198.2228C1263.2823,-198.2228 1263.2823,-219.7269 1263.2823,-219.7269"/>
<polygon fill="#000000" stroke="#000000" points="1259.7823,-219.7269 1263.2823,-229.7269 1266.7823,-219.727 1259.7823,-219.7269"/>
</g>
<!-- MatTabsModule  -->
<g id="node19" class="node">
<title>MatTabsModule </title>
<polygon fill="#fb8072" stroke="#000000" points="1186.3116,-122 1073.6884,-122 1073.6884,-86 1186.3116,-86 1186.3116,-122"/>
<text text-anchor="middle" x="1130" y="-99.8" font-family="Times,serif" font-size="14.00" fill="#000000">MatTabsModule </text>
</g>
<!-- ParserModule&#45;&gt;MatTabsModule  -->
<g id="edge18" class="edge">
<title>ParserModule&#45;&gt;MatTabsModule </title>
<path fill="none" stroke="#000000" stroke-dasharray="5,2" d="M1291.092,-161.9909C1291.092,-145.9506 1291.092,-125 1291.092,-125 1291.092,-125 1153.3431,-125 1153.3431,-125 1153.3431,-125 1153.3431,-124.708 1153.3431,-124.708"/>
<polygon fill="#000000" stroke="#000000" points="1156.8435,-132.0799 1153.3431,-122.08 1149.8435,-132.0802 1156.8435,-132.0799"/>
</g>
<!-- MatProgressSpinnerModule  -->
<g id="node20" class="node">
<title>MatProgressSpinnerModule </title>
<polygon fill="#fb8072" stroke="#000000" points="1055.856,-122 878.144,-122 878.144,-86 1055.856,-86 1055.856,-122"/>
<text text-anchor="middle" x="967" y="-99.8" font-family="Times,serif" font-size="14.00" fill="#000000">MatProgressSpinnerModule </text>
</g>
<!-- ParserModule&#45;&gt;MatProgressSpinnerModule  -->
<g id="edge19" class="edge">
<title>ParserModule&#45;&gt;MatProgressSpinnerModule </title>
<path fill="none" stroke="#000000" stroke-dasharray="5,2" d="M1285.1841,-161.8129C1285.1841,-146.8176 1285.1841,-128 1285.1841,-128 1285.1841,-128 1019.8687,-128 1019.8687,-128 1019.8687,-128 1019.8687,-127.419 1019.8687,-127.419"/>
<polygon fill="#000000" stroke="#000000" points="1023.3689,-132.1902 1019.8687,-122.1903 1016.3689,-132.1903 1023.3689,-132.1902"/>
</g>
<!-- ParserHomeComponent  -->
<g id="node21" class="node">
<title>ParserHomeComponent </title>
<polygon fill="#fb8072" stroke="#000000" points="860.0218,-122 705.9782,-122 705.9782,-86 860.0218,-86 860.0218,-122"/>
<text text-anchor="middle" x="783" y="-99.8" font-family="Times,serif" font-size="14.00" fill="#000000">ParserHomeComponent </text>
</g>
<!-- ParserModule&#45;&gt;ParserHomeComponent  -->
<g id="edge20" class="edge">
<title>ParserModule&#45;&gt;ParserHomeComponent </title>
<path fill="none" stroke="#000000" stroke-dasharray="5,2" d="M1279.2761,-161.9489C1279.2761,-147.627 1279.2761,-130 1279.2761,-130 1279.2761,-130 852.0696,-130 852.0696,-130 852.0696,-130 852.0696,-129.2058 852.0696,-129.2058"/>
<polygon fill="#000000" stroke="#000000" points="855.5697,-132.0578 852.0696,-122.0579 848.5697,-132.0579 855.5697,-132.0578"/>
</g>
<!-- ParserDisplayComponent  -->
<g id="node22" class="node">
<title>ParserDisplayComponent </title>
<polygon fill="#fb8072" stroke="#000000" points="687.8574,-122 524.1426,-122 524.1426,-86 687.8574,-86 687.8574,-122"/>
<text text-anchor="middle" x="606" y="-99.8" font-family="Times,serif" font-size="14.00" fill="#000000">ParserDisplayComponent </text>
</g>
<!-- ParserModule&#45;&gt;ParserDisplayComponent  -->
<g id="edge21" class="edge">
<title>ParserModule&#45;&gt;ParserDisplayComponent </title>
<path fill="none" stroke="#000000" stroke-dasharray="5,2" d="M1273.3682,-161.963C1273.3682,-148.7087 1273.3682,-133 1273.3682,-133 1273.3682,-133 606,-133 606,-133 606,-133 606,-131.9201 606,-131.9201"/>
<polygon fill="#000000" stroke="#000000" points="609.5001,-132.2014 606,-122.2015 602.5001,-132.2015 609.5001,-132.2014"/>
</g>
<!-- ParserDataComponent  -->
<g id="node23" class="node">
<title>ParserDataComponent </title>
<polygon fill="#fb8072" stroke="#000000" points="506.2366,-122 359.7634,-122 359.7634,-86 506.2366,-86 506.2366,-122"/>
<text text-anchor="middle" x="433" y="-99.8" font-family="Times,serif" font-size="14.00" fill="#000000">ParserDataComponent </text>
</g>
<!-- ParserModule&#45;&gt;ParserDataComponent  -->
<g id="edge22" class="edge">
<title>ParserModule&#45;&gt;ParserDataComponent </title>
<path fill="none" stroke="#000000" stroke-dasharray="5,2" d="M1267.4602,-161.8495C1267.4602,-149.7292 1267.4602,-136 1267.4602,-136 1267.4602,-136 433,-136 433,-136 433,-136 433,-132.2434 433,-132.2434"/>
<polygon fill="#000000" stroke="#000000" points="436.5001,-132.2434 433,-122.2434 429.5001,-132.2434 436.5001,-132.2434"/>
</g>
<!-- ParserSearchComponent  -->
<g id="node24" class="node">
<title>ParserSearchComponent </title>
<polygon fill="#fb8072" stroke="#000000" points="341.897,-122 184.103,-122 184.103,-86 341.897,-86 341.897,-122"/>
<text text-anchor="middle" x="263" y="-99.8" font-family="Times,serif" font-size="14.00" fill="#000000">ParserSearchComponent </text>
</g>
<!-- ParserModule&#45;&gt;ParserSearchComponent  -->
<g id="edge23" class="edge">
<title>ParserModule&#45;&gt;ParserSearchComponent </title>
<path fill="none" stroke="#000000" stroke-dasharray="5,2" d="M1261.5522,-161.9445C1261.5522,-150.561 1261.5522,-138 1261.5522,-138 1261.5522,-138 263,-138 263,-138 263,-138 263,-132.1944 263,-132.1944"/>
<polygon fill="#000000" stroke="#000000" points="266.5001,-132.1944 263,-122.1944 259.5001,-132.1945 266.5001,-132.1944"/>
</g>
<!-- ParserTabComponent  -->
<g id="node25" class="node">
<title>ParserTabComponent </title>
<polygon fill="#fb8072" stroke="#000000" points="165.5778,-122 24.4222,-122 24.4222,-86 165.5778,-86 165.5778,-122"/>
<text text-anchor="middle" x="95" y="-99.8" font-family="Times,serif" font-size="14.00" fill="#000000">ParserTabComponent </text>
</g>
<!-- ParserModule&#45;&gt;ParserTabComponent  -->
<g id="edge24" class="edge">
<title>ParserModule&#45;&gt;ParserTabComponent </title>
<path fill="none" stroke="#000000" stroke-dasharray="5,2" d="M1255.6443,-161.8701C1255.6443,-151.6855 1255.6443,-141 1255.6443,-141 1255.6443,-141 95,-141 95,-141 95,-141 95,-132.0664 95,-132.0664"/>
<polygon fill="#000000" stroke="#000000" points="98.5001,-132.0664 95,-122.0664 91.5001,-132.0665 98.5001,-132.0664"/>
</g>
<!-- RouterModule.forRoot(args) -->
<g id="node9" class="node">
<title>RouterModule.forRoot(args)</title>
<polygon fill="#8dd3c7" stroke="#000000" points="1959.8419,-266 1956.8419,-270 1935.8419,-270 1932.8419,-266 1782.1581,-266 1782.1581,-230 1959.8419,-230 1959.8419,-266"/>
<text text-anchor="middle" x="1871" y="-243.8" font-family="Times,serif" font-size="14.00" fill="#000000">RouterModule.forRoot(args)</text>
</g>
<!-- RouterModule.forRoot(args)&#45;&gt;AppRoutingModule -->
<g id="edge8" class="edge">
<title>RouterModule.forRoot(args)&#45;&gt;AppRoutingModule</title>
<path fill="none" stroke="#000000" d="M1800.7639,-229.7079C1800.7639,-207.7943 1800.7639,-174 1800.7639,-174 1800.7639,-174 1626.3864,-174 1626.3864,-174"/>
<polygon fill="#000000" stroke="#000000" points="1626.3864,-170.5001 1616.3864,-174 1626.3864,-177.5001 1626.3864,-170.5001"/>
</g>
<!-- ParserDataComponent -->
<g id="node11" class="node">
<title>ParserDataComponent</title>
<polygon fill="#ffffb3" stroke="#000000" points="2481.2366,-122 2338.7634,-122 2338.7634,-86 2481.2366,-86 2481.2366,-122"/>
<text text-anchor="middle" x="2410" y="-99.8" font-family="Times,serif" font-size="14.00" fill="#000000">ParserDataComponent</text>
</g>
<!-- ParserDataComponent&#45;&gt;ParserModule -->
<g id="edge10" class="edge">
<title>ParserDataComponent&#45;&gt;ParserModule</title>
<path fill="none" stroke="#000000" d="M2410,-122.027C2410,-138.3976 2410,-160 2410,-160 2410,-160 1338.3557,-160 1338.3557,-160 1338.3557,-160 1338.3557,-160.1846 1338.3557,-160.1846"/>
<polygon fill="#000000" stroke="#000000" points="1334.8563,-151.8455 1338.3557,-161.8457 1341.8563,-151.8459 1334.8563,-151.8455"/>
</g>
<!-- ParserDisplayComponent -->
<g id="node12" class="node">
<title>ParserDisplayComponent</title>
<polygon fill="#ffffb3" stroke="#000000" points="2320.8571,-122 2161.1429,-122 2161.1429,-86 2320.8571,-86 2320.8571,-122"/>
<text text-anchor="middle" x="2241" y="-99.8" font-family="Times,serif" font-size="14.00" fill="#000000">ParserDisplayComponent</text>
</g>
<!-- ParserDisplayComponent&#45;&gt;ParserModule -->
<g id="edge11" class="edge">
<title>ParserDisplayComponent&#45;&gt;ParserModule</title>
<path fill="none" stroke="#000000" d="M2241,-122.2396C2241,-137.5706 2241,-157 2241,-157 2241,-157 1332.4478,-157 1332.4478,-157 1332.4478,-157 1332.4478,-157.4878 1332.4478,-157.4878"/>
<polygon fill="#000000" stroke="#000000" points="1328.948,-151.8776 1332.4478,-161.8777 1335.948,-151.8778 1328.948,-151.8776"/>
</g>
<!-- ParserTabComponent -->
<g id="node13" class="node">
<title>ParserTabComponent</title>
<polygon fill="#ffffb3" stroke="#000000" points="2143.0772,-122 2004.9228,-122 2004.9228,-86 2143.0772,-86 2143.0772,-122"/>
<text text-anchor="middle" x="2074" y="-99.8" font-family="Times,serif" font-size="14.00" fill="#000000">ParserTabComponent</text>
</g>
<!-- ParserTabComponent&#45;&gt;ParserModule -->
<g id="edge12" class="edge">
<title>ParserTabComponent&#45;&gt;ParserModule</title>
<path fill="none" stroke="#000000" d="M2074,-122.0511C2074,-136.373 2074,-154 2074,-154 2074,-154 1326.5398,-154 1326.5398,-154 1326.5398,-154 1326.5398,-154.7942 1326.5398,-154.7942"/>
<polygon fill="#000000" stroke="#000000" points="1323.04,-151.9421 1326.5398,-161.9421 1330.04,-151.9422 1323.04,-151.9421"/>
</g>
<!-- ParserHomeComponent -->
<g id="node14" class="node">
<title>ParserHomeComponent</title>
<polygon fill="#ffffb3" stroke="#000000" points="1987.0226,-122 1836.9774,-122 1836.9774,-86 1987.0226,-86 1987.0226,-122"/>
<text text-anchor="middle" x="1912" y="-99.8" font-family="Times,serif" font-size="14.00" fill="#000000">ParserHomeComponent</text>
</g>
<!-- ParserHomeComponent&#45;&gt;ParserModule -->
<g id="edge13" class="edge">
<title>ParserHomeComponent&#45;&gt;ParserModule</title>
<path fill="none" stroke="#000000" d="M1898.205,-122.1467C1898.205,-135.7395 1898.205,-152 1898.205,-152 1898.205,-152 1320.6319,-152 1320.6319,-152 1320.6319,-152 1320.6319,-152.9793 1320.6319,-152.9793"/>
<polygon fill="#000000" stroke="#000000" points="1317.132,-151.793 1320.6319,-161.793 1324.132,-151.7931 1317.132,-151.793"/>
</g>
<!-- ParserSearchComponent -->
<g id="node15" class="node">
<title>ParserSearchComponent</title>
<polygon fill="#ffffb3" stroke="#000000" points="1819.3975,-122 1664.6025,-122 1664.6025,-86 1819.3975,-86 1819.3975,-122"/>
<text text-anchor="middle" x="1742" y="-99.8" font-family="Times,serif" font-size="14.00" fill="#000000">ParserSearchComponent</text>
</g>
<!-- ParserSearchComponent&#45;&gt;ParserModule -->
<g id="edge14" class="edge">
<title>ParserSearchComponent&#45;&gt;ParserModule</title>
<path fill="none" stroke="#000000" d="M1711.1888,-122.0439C1711.1888,-134.5633 1711.1888,-149 1711.1888,-149 1711.1888,-149 1314.7239,-149 1314.7239,-149 1314.7239,-149 1314.7239,-151.9672 1314.7239,-151.9672"/>
<polygon fill="#000000" stroke="#000000" points="1311.224,-151.9671 1314.7239,-161.9672 1318.224,-151.9672 1311.224,-151.9671"/>
</g>
<!-- CommonModule -->
<g id="node16" class="node">
<title>CommonModule</title>
<polygon fill="#8dd3c7" stroke="#000000" points="1640.6681,-122 1637.6681,-126 1616.6681,-126 1613.6681,-122 1529.3319,-122 1529.3319,-86 1640.6681,-86 1640.6681,-122"/>
<text text-anchor="middle" x="1585" y="-99.8" font-family="Times,serif" font-size="14.00" fill="#000000">CommonModule</text>
</g>
<!-- CommonModule&#45;&gt;ParserModule -->
<g id="edge15" class="edge">
<title>CommonModule&#45;&gt;ParserModule</title>
<path fill="none" stroke="#000000" d="M1572.7767,-122.0555C1572.7767,-133.439 1572.7767,-146 1572.7767,-146 1572.7767,-146 1308.8159,-146 1308.8159,-146 1308.8159,-146 1308.8159,-151.8056 1308.8159,-151.8056"/>
<polygon fill="#000000" stroke="#000000" points="1305.316,-151.8055 1308.8159,-161.8056 1312.316,-151.8056 1305.316,-151.8055"/>
</g>
<!-- MatTabsModule -->
<g id="node17" class="node">
<title>MatTabsModule</title>
<polygon fill="#8dd3c7" stroke="#000000" points="1511.8118,-122 1508.8118,-126 1487.8118,-126 1484.8118,-122 1402.1882,-122 1402.1882,-86 1511.8118,-86 1511.8118,-122"/>
<text text-anchor="middle" x="1457" y="-99.8" font-family="Times,serif" font-size="14.00" fill="#000000">MatTabsModule</text>
</g>
<!-- MatTabsModule&#45;&gt;ParserModule -->
<g id="edge16" class="edge">
<title>MatTabsModule&#45;&gt;ParserModule</title>
<path fill="none" stroke="#000000" d="M1435.9155,-122.1274C1435.9155,-132.7109 1435.9155,-144 1435.9155,-144 1435.9155,-144 1302.908,-144 1302.908,-144 1302.908,-144 1302.908,-151.5782 1302.908,-151.5782"/>
<polygon fill="#000000" stroke="#000000" points="1299.4081,-151.5781 1302.908,-161.5782 1306.4081,-151.5782 1299.4081,-151.5781"/>
</g>
<!-- MatProgressSpinnerModule -->
<g id="node18" class="node">
<title>MatProgressSpinnerModule</title>
<polygon fill="#8dd3c7" stroke="#000000" points="1383.8557,-122 1380.8557,-126 1359.8557,-126 1356.8557,-122 1210.1443,-122 1210.1443,-86 1383.8557,-86 1383.8557,-122"/>
<text text-anchor="middle" x="1297" y="-99.8" font-family="Times,serif" font-size="14.00" fill="#000000">MatProgressSpinnerModule</text>
</g>
<!-- MatProgressSpinnerModule&#45;&gt;ParserModule -->
<g id="edge17" class="edge">
<title>MatProgressSpinnerModule&#45;&gt;ParserModule</title>
<path fill="none" stroke="#000000" d="M1297,-122.0109C1297,-122.0109 1297,-151.855 1297,-151.855"/>
<polygon fill="#000000" stroke="#000000" points="1293.5001,-151.8549 1297,-161.855 1300.5001,-151.855 1293.5001,-151.8549"/>
</g>
</g>
</svg>
